<?xml version="1.0" encoding="utf-8"?>
<!-- Generator: Adobe Illustrator 25.0.0, SVG Export Plug-In . SVG Version: 6.00 Build 0)  -->
<svg version="1.1" id="Layer_1" xmlns="http://www.w3.org/2000/svg" xmlns:xlink="http://www.w3.org/1999/xlink" x="0px" y="0px"
	 viewBox="0 0 244.34 148.76" style="enable-background:new 0 0 244.34 148.76;" xml:space="preserve">
<style type="text/css">
	.st0{fill:#ffffff;}
	.st1{fill:#C3979F;}
</style>
<path class="st0" d="M112.93,74.25c3.78,0,6.81-1.03,9.1-3.1c2.28-2.06,3.43-4.85,3.43-8.37c0-2.9-1.01-5.14-3.03-6.72
	c-2.02-1.58-4.66-2.37-7.91-2.37c-3.6,0-6.61,1.03-9.03,3.1c-2.42,2.07-3.62,4.64-3.62,7.71c0,3.08,0.92,5.47,2.77,7.18
	C106.47,73.39,109.24,74.25,112.93,74.25z"/>
<path class="st0" d="M241.57,96.92c-1.85-4.22-4.61-7.62-8.3-10.22c-3.69-2.59-8.13-3.89-13.31-3.89c-5.36,0-10.19,1.47-14.5,4.42
	c-4.31,2.95-7.71,7.03-10.22,12.26c-2.5,5.23-3.76,11.18-3.76,17.86c0,1.79,0.13,3.54,0.38,5.25c-1.79,1.96-3.35,3.54-4.66,4.71
	c-2.42,2.15-4.5,3.23-6.26,3.23c-2.55,0-3.82-1.76-3.82-5.27c0-2.46,0.83-7.51,2.5-15.16c1.93-8.96,2.9-15.16,2.9-18.59
	c0-5.71-2.86-8.57-8.57-8.57c-2.9,0-6.09,1.01-9.56,3.03c-3.47,2.02-7.01,5.4-10.61,10.15c-3.6,4.75-6.85,10.9-9.75,18.45
	c0.35-3.87,0.79-7.12,1.32-9.75c0.53-2.64,1.23-5.71,2.11-9.23c1.32-4.92,1.98-8.08,1.98-9.49c0-1.23-0.35-2.06-1.05-2.5
	c-0.7-0.44-1.93-0.66-3.69-0.66c-3.25,0-5.78,0.59-7.58,1.78c-1.8,1.19-3.1,3.05-3.89,5.6c-3.02,9.56-4.62,19.62-4.83,30.16
	c-2.53,2.91-4.66,5.16-6.37,6.74c-2.37,2.2-4.35,3.3-5.93,3.3c-1.67,0-2.86-0.7-3.56-2.11c-0.7-1.4-1.05-3.43-1.05-6.06
	c0-3.43,1.05-9.97,3.16-19.64c1.67-8,2.5-13.09,2.5-15.29c0-2.99-2.24-4.48-6.72-4.48c-2.9,0-5.01,0.53-6.33,1.58
	c-1.32,1.05-2.37,2.99-3.16,5.8c-1.58,5.36-2.88,11.14-3.89,17.33c-1.01,6.2-1.52,11.27-1.52,15.22c0,6.68,1.3,12.04,3.89,16.08
	c2.59,4.04,6.74,6.06,12.46,6.06c5.55,0,11.4-2.88,17.56-8.6c0.27,1.26,0.58,2.38,0.95,3.33c1.36,3.52,3.71,5.27,7.05,5.27
	c2.72,0,4.72-0.73,6-2.17c1.27-1.45,2.39-4.24,3.36-8.37c1.32-5.36,3.05-10.46,5.21-15.29c2.15-4.83,4.26-8.72,6.33-11.67
	c2.06-2.94,3.67-4.42,4.81-4.42c0.97,0,1.45,0.7,1.45,2.11c0,2.11-0.57,5.93-1.71,11.47c-1.23,6.33-1.85,10.72-1.85,13.18
	c0,4.92,1.14,8.68,3.43,11.27c2.28,2.59,5.67,3.89,10.15,3.89c5.54,0,10.48-1.49,14.83-4.48c2.4-1.65,4.71-3.56,6.94-5.72
	c1.63,2.47,3.66,4.58,6.11,6.31c3.65,2.59,8.06,3.89,13.25,3.89c5.27,0,10.08-1.47,14.43-4.42c4.35-2.94,7.8-7.03,10.35-12.26
	c2.55-5.23,3.82-11.18,3.82-17.86C244.34,105.66,243.42,101.14,241.57,96.92z M224.77,125.92c-2.07,3.25-4.59,4.88-7.58,4.88
	c-2.64,0-4.83-1.19-6.59-3.56c-1.76-2.37-2.64-6.06-2.64-11.07c0-6.33,1.03-11.09,3.1-14.3c2.06-3.21,4.68-4.81,7.84-4.81
	c2.46,0,4.57,1.23,6.33,3.69c1.76,2.46,2.64,6.11,2.64,10.94C227.86,117.92,226.83,122.67,224.77,125.92z"/>
<path class="st0" d="M59.89,137.7c1.05-3.81,2.85-12.49-3.16-10.74c-4.99,1.45-3.68,7.77-2.69,10.9
	c-15.37,0.72-29.54,4.03-27.49,10.14c1.3,3.89,21.99-8.35,62.64-3.66C88.78,139.9,74.65,137.63,59.89,137.7z"/>
<path class="st0" d="M57.26,124.16c8.35-3.02,15.2-10.09,20.57-21.24c3.33-6.92,5.9-14.48,7.71-22.68
	c2.54-12.44,4.32-31.73,1.74-48.52c-0.18-1.13-0.37-2.25-0.58-3.35c0-0.02-0.01-0.05-0.01-0.07c-0.48-2.41-1.06-4.72-1.71-6.97
	c-1.94-6.4-4.78-12.01-8.79-16.14C70.81-0.08,64.99-0.7,59.43,0.54c-2.81,0.63-7.54,2.93-7.08,8.9c0.75,9.76,8.63,6.39,12.56,8.37
	c4.12,2.07,8.01,9.01,8.01,32.16c0,4.37-0.37,12.24-0.6,14.23c-0.96,10.53-2.89,19.68-5.78,27.46c-2.89,7.77-6.49,12.43-10.78,13.99
	c-4.22,1.52-8.56-0.62-13.04-6.43c-4.48-5.81-9.01-15.04-13.57-27.68c-4.36-12.07-7.99-25.99-10.88-41.76
	c-0.31-1.38-0.56-2.32-0.74-2.82c-1.7-4.71-5.28-6.08-10.73-4.11c-3.31,1.19-5.36,2.8-6.18,4.82c-0.81,2.02-0.81,5.32,0,9.88
	C2.72,49.87,6.4,63.3,11.66,77.85c6.15,17.03,13.14,29.78,20.97,38.25C40.46,124.58,48.67,127.26,57.26,124.16z"/>
<path class="st1" d="M52.67,98.31c9.9,1.66,14.79-26.83,14.8-30.79c0.02-17.5-18.44,10.17-30.19-8.28
	c-1.81-2.84-5.23-2.77-5.24-0.31C32,67.07,42.8,96.66,52.67,98.31z"/>
</svg>
